<svg width="1877" height="201" viewBox="0 0 1877 201" fill="none" xmlns="http://www.w3.org/2000/svg">
<path d="M1 177.817C6.97769 176.446 16.3473 174.299 27.8735 171.65C52.9777 165.86 56.5266 164.981 62.3263 163.934C89.5767 159.023 92.6231 163.661 105.008 160.332C106.568 159.913 111.781 158.437 117.35 160.332C118.764 160.814 121.831 161.903 124.04 164.96C124.804 166.017 127.118 169.221 126.092 173.189C125.118 176.98 121.821 178.665 121.465 178.843C117.727 180.676 113.571 179.294 111.184 177.304C109.248 175.692 108.305 173.535 107.583 170.614C106.107 164.635 106.798 160.489 107.583 152.291C109.289 134.512 107.583 138.219 108.892 131.685C109.122 130.555 110.839 122.179 108.892 121.215C108.002 120.776 107.122 120.922 107.122 120.922C106.285 121.058 106.096 121.508 105.5 121.655C104.264 121.959 102.37 120.671 101.961 119.142C101.605 117.844 102.506 117.017 103.584 114.567C103.584 114.567 104.338 112.85 105.207 109.101C105.228 109.017 105.248 108.923 105.269 108.798C106.013 104.903 104.62 98.7672 104.62 98.7672C102.202 88.5692 103.238 85.7422 103.584 84.8941C104.223 83.355 105.018 82.5174 105.5 82.0881C107.154 80.6223 109.091 80.3919 111.697 80.1721C118.69 79.5857 122.239 79.303 124.543 80.3186C125.914 80.9259 128.311 81.9729 129.264 84.3078C129.997 86.0982 129.306 87.2395 128.824 90.7993C128.604 92.3908 128.636 94.956 128.678 100.097C128.72 105.06 128.761 107.573 129.411 108.955C129.965 110.127 131.305 112.357 133.253 114.567C134.666 116.169 135.734 117.006 135.619 118.263C135.514 119.404 134.467 120.44 133.399 120.776C132.415 121.079 131.483 120.776 129.714 120.189C127.966 119.613 127.411 119.132 126.908 119.456C126.228 119.886 126.804 121.027 126.019 121.969C125.213 122.932 123.663 122.87 123.213 122.859C120.983 122.775 120.386 121.194 118.931 121.529C117.822 121.781 117.999 122.733 116.565 123.445C115.278 124.084 113.33 124.22 112.137 123.299C111.331 122.681 111.415 122.001 110.232 121.006C109.656 120.524 109.111 120.231 108.745 120.064" stroke="#606C38" stroke-miterlimit="10"/>
<path d="M103.741 94.6839C102.663 94.7049 98.9044 94.6944 97.0514 94.663C93.2303 94.5897 88.2053 94.4955 82.4684 93.4589C80.7619 93.1448 75.8625 92.1816 70.6281 90.0038C69.8534 89.6792 69.2567 89.407 68.6286 89.0929C66.4197 87.9725 62.3682 86.0984 61.1015 83.0515C60.5571 81.7323 59.9813 79.3032 61.6563 74.7801C62.7346 71.8694 64.9436 67.5242 77.2653 57.3158C85.7137 50.3112 91.3773 46.8037 93.335 45.6101C100.569 41.2231 104.662 39.8305 106.337 39.2966C110.347 38.0192 113.728 36.9512 118.136 37.3491C122.585 37.747 125.652 39.4536 131.609 42.8355C138.236 46.6048 137.88 47.5471 143.407 50.552C149.123 53.6512 149.636 52.7194 157.802 56.4991C165.695 60.1532 169.213 62.8755 171.736 65.3255C176.29 69.7439 176.792 72.4871 176.751 74.1519C176.709 76.0784 175.934 77.5023 175.076 79.0729C172.615 83.6065 168.962 86.067 167.831 86.7894C165.947 87.983 164.669 88.3809 152.777 90.6006C143.303 92.37 140.602 92.7784 136.896 93.0192C133.933 93.2181 131.441 93.2286 129.651 93.2076" stroke="#606C38" stroke-miterlimit="10"/>
<path d="M61.3003 79.7218C64.1583 78.0675 67.5188 76.9262 69.2147 76.6749C72.3763 76.2142 73.9362 76.8529 77.4537 76.141C79.6103 75.7012 80.7932 75.1044 82.6462 74.3506C86.1533 72.9266 89.8802 72.089 97.334 70.4138C103.458 69.0317 102.778 69.461 108.797 68.0894C116.377 66.3618 116.419 65.922 119.727 65.5765C123.234 65.2205 122.553 65.7754 131.734 65.7545C135.723 65.7545 137.105 65.6393 140.874 65.7545C143.753 65.8383 143.648 65.922 147.679 66.1105C153.08 66.3618 158.775 66.4665 159.142 66.4665C163.361 66.5398 164.334 66.4874 166.313 66.8225C169.747 67.3983 173.432 68.7804 175.327 69.5761" stroke="#606C38" stroke-miterlimit="10"/>
<path d="M103.217 91.1133C102.244 91.8881 98.5693 93.9193 97.5852 94.6941" stroke="#606C38" stroke-miterlimit="10"/>
<path d="M102.621 88.8418C100.726 89.3444 97.8994 89.9516 95.8161 90.6636C93.2931 91.5326 89.9535 93.2707 87.8284 94.2025" stroke="#606C38" stroke-miterlimit="10"/>
<path d="M102.621 87.0929C101.05 87.051 97.7633 87.0719 94.9053 87.3127C90.8852 87.6583 90.6968 88.0666 86.7082 88.4226C82.5207 88.7995 81.411 88.4645 77.3909 89.0299C75.5484 89.2916 72.345 90.0455 71.34 90.2758" stroke="#606C38" stroke-miterlimit="10"/>
<path d="M103.406 85.3759C101.679 85.355 98.0668 84.5592 94.7273 84.3289C90.5084 84.0357 89.5348 83.7635 83.9339 83.2609C81.5471 83.041 78.2703 82.7479 73.9572 82.5071C71.0154 82.3395 68.3982 82.2453 64.6085 81.6904C63.2162 81.481 62.0646 81.2716 61.2794 81.125" stroke="#606C38" stroke-miterlimit="10"/>
<path d="M104.264 83.5748C103.102 83.3026 100.119 82.2661 97.7842 81.5227C93.9108 80.2977 92.1415 79.3972 88.2053 78.0256C86.6454 77.4812 83.4315 76.0886 80.3955 75.272" stroke="#606C38" stroke-miterlimit="10"/>
<path d="M105.5 82.099C104.505 81.3032 102.139 80.0468 101.071 79.2406C98.9044 77.5968 93.0733 73.2621 90.99 71.8486" stroke="#606C38" stroke-miterlimit="10"/>
<path d="M106.567 81.1249C106.316 80.2244 105.562 78.2246 104.924 77.1462C104.076 75.7327 103.395 75.2616 102.506 73.8271C102.024 73.0419 101.04 70.9269 100.653 69.6914" stroke="#606C38" stroke-miterlimit="10"/>
<path d="M109.97 81.1251C109.708 80.5388 109.174 78.895 108.735 77.649C107.991 75.5759 107.813 74.4975 107.122 72.3406C106.85 71.4821 106.411 69.6289 105.761 68.0479" stroke="#606C38" stroke-miterlimit="10"/>
<path d="M113.079 80.7584C113.037 80.0988 113.205 78.2561 113.278 76.8531C113.404 74.5182 113.749 73.2932 113.99 70.8641C114.084 69.9008 114.513 67.7859 114.492 66.0269" stroke="#606C38" stroke-miterlimit="10"/>
<path d="M117.193 80.7583C117.172 80.0254 117.256 78.1094 117.288 76.6226C117.35 74.1516 117.528 72.9895 117.654 70.4557C117.706 69.4505 117.926 67.3669 117.905 65.4404" stroke="#606C38" stroke-miterlimit="10"/>
<path d="M132.656 65.7441C132.279 66.4247 131.326 68.6863 130.562 70.0369C129.044 72.7382 128.971 72.822 128.646 73.5235C127.809 75.3349 127.84 75.8793 126.992 77.4498C126.479 78.4131 125.568 80.1511 125.212 80.6328" stroke="#606C38" stroke-miterlimit="10"/>
<path d="M142.099 65.7861C141.586 66.3411 139.879 68.2466 138.853 69.3355C137.074 71.2097 136.634 71.5971 135.545 72.8221C134.268 74.2356 133.64 74.9476 132.844 76.0469C131.703 77.6384 131.368 78.4551 130.06 80.057C129.452 80.8004 128.918 81.3658 128.573 81.7113" stroke="#606C38" stroke-miterlimit="10"/>
<path d="M129.442 83.826C131.347 82.5276 133.682 80.8105 135.022 79.9206C139.806 76.7272 140.424 76.4235 142.224 75.0205C143.627 73.9211 143.774 73.7013 146.726 71.3245C148.16 70.1728 152.096 66.9166 152.871 66.2988" stroke="#606C38" stroke-miterlimit="10"/>
<path d="M165.402 66.6865C164.575 67.2833 162.073 69.2203 160.723 70.1312C159.487 70.9688 156.922 72.6964 154.127 74.3298C152.567 75.2407 150.034 76.4866 145.03 78.9262C139.764 81.5019 138.497 82.0463 136.927 82.6222C134.498 83.5226 131.525 85.2188 130.122 85.5643" stroke="#606C38" stroke-miterlimit="10"/>
<path d="M175.84 71.2725C173.987 72.152 170.291 73.8691 167.025 75.3244C161.644 77.7221 158.954 78.9262 155.729 80.0256C152.369 81.1668 153.604 80.4862 145.124 82.9258C141.68 83.9205 138.969 84.7476 134.624 85.8261C133.022 86.2239 130.782 86.7474 129.903 86.9464" stroke="#606C38" stroke-miterlimit="10"/>
<path d="M171.809 84.0356C169.276 84.2032 162.67 84.2974 158.022 84.8314C150.662 85.669 146.977 86.0878 143.92 86.737C141.46 87.25 137.754 88.14 132.52 88.2342C131.724 88.2447 129.882 87.8782 129.442 87.8677" stroke="#606C38" stroke-miterlimit="10"/>
<path d="M129.442 89.0928C130.29 89.5639 132.834 90.6842 133.923 91.1345C134.687 91.4486 137.733 92.6631 138.424 92.883" stroke="#606C38" stroke-miterlimit="10"/>
<path d="M128.071 120.733C128.133 122.461 128.238 125.33 128.343 128.89C128.604 137.433 128.594 140.323 128.96 145.192C129.369 150.668 129.568 153.411 129.986 154.437C130.876 156.636 133.326 160.981 146.579 166.562C152.819 169.19 158.367 170.791 165.884 172.561C178.907 175.618 189.093 177.095 192.203 177.534C202.347 178.969 212.01 179.89 223.934 180.602C239.574 181.544 249.896 181.597 268.332 181.775" stroke="#606C38" stroke-miterlimit="10"/>
<path d="M463.041 181.429C474.253 179.995 494.531 178.99 501.2 177.189C517.814 172.707 521.625 169.367 523.76 166.938C528.691 161.316 529.968 154.563 530.733 150.532C532.188 142.846 530.262 141.224 531.549 128.795C532.188 122.67 533.193 117.927 533.601 116.074C534.543 111.844 534.952 111.164 537.705 101.719C540.751 91.2492 540.238 92.0973 542.217 85.7209C544.311 78.9676 545.117 77.3029 546.132 72.7169C547.148 68.1624 547.577 62.9273 547.786 60.3726" stroke="#606C38" stroke-miterlimit="10"/>
<path d="M538.302 60.7495C544.29 60.3412 550.267 59.9224 556.256 59.514" stroke="#606C38" stroke-miterlimit="10"/>
<path d="M542.887 60.7495C540.573 68.2043 538.166 76.3501 536.449 81.1769C533.894 88.349 531.759 93.7726 530.052 98.0967C527.885 103.604 527.634 104.033 523.038 115.226C519.782 123.152 516.338 131.005 513.135 138.951C513.135 138.951 510.057 146.595 506.738 151.956C506.665 152.071 506.497 152.343 506.288 152.709C505.262 154.489 503.472 157.557 503.231 160.824C503.137 162.143 502.823 166.321 505.503 168.048C508.256 169.818 512.004 167.619 512.308 167.43C512.915 167.064 515.239 165.661 515.406 163.515C515.584 161.222 513.208 159.327 512.308 158.562C510.413 156.96 507.544 152.27 501.786 142.878C497.002 135.067 494.385 127.958 492.919 123.895C491.642 120.356 491.768 120.137 489.004 112.137C487.413 107.541 486.753 105.824 486.115 103.06C485.078 98.5993 484.879 94.1599 484.879 91.668" stroke="#606C38" stroke-miterlimit="10"/>
<path d="M479.812 91.6576C479.833 93.2595 479.896 96.1388 480.106 98.547C480.336 101.238 480.817 105.164 481.885 109.74C482.765 113.519 483.958 116.88 486.334 123.602C488.229 128.973 489.224 131.685 489.224 131.685C490.302 134.638 491.077 136.669 491.893 139.695C492.427 141.653 492.741 142.815 492.972 144.438C493.38 147.359 493.076 148.741 492.972 152.196C492.846 156.353 492.752 159.18 493.527 162.614C494.249 165.818 495.39 168.132 496.301 169.933C497.882 173.074 499.117 175.534 501.2 177.168C504.623 179.859 508.874 179.189 513.25 178.906C521.646 178.372 518.296 180.068 536.365 180.874C545.724 181.293 550.665 181.021 560.757 180.874C567.729 180.77 577.769 180.927 597.859 181.22C619.236 181.534 623.246 181.796 639.347 181.911C650.067 181.984 658.766 181.953 664.2 181.911" stroke="#606C38" stroke-miterlimit="10"/>
<path d="M473.165 91.2911C479.456 91.2388 485.748 91.1969 492.04 91.1445" stroke="#606C38" stroke-miterlimit="10"/>
<path d="M479.603 98.4422C475.426 98.4422 471.102 98.2119 468.433 97.992C464.266 97.6465 461.921 97.2486 459.346 96.2958C455.326 94.8195 454.195 93.2909 453.776 92.6313C453.546 92.2648 452.374 90.3592 452.646 87.8359C452.876 85.7523 453.954 84.3807 455.043 83.0406C456.519 81.2292 458.184 80.067 461.46 77.8264C464.81 75.5334 465.7 75.2193 466.747 73.6697C467.7 72.2458 467.48 71.7013 468.443 69.5863C468.653 69.1152 469.993 66.2254 472.599 63.5974C473.751 62.4352 476.347 59.8909 480.629 58.7392C481.979 58.3727 485.957 57.3048 490.145 59.0219C491.925 59.7548 493.443 61.2206 496.489 64.1628C500.122 67.6808 501.943 69.4502 503.116 71.9107C504.309 74.434 504.027 75.4601 505.723 78.1824C506.497 79.4283 507.429 80.9151 509.177 82.2658C511.051 83.7211 511.826 83.428 512.768 84.6634C513.972 86.234 514.108 88.506 513.543 90.2336C512.915 92.1392 511.522 93.1129 509.313 94.5997C505.618 97.0916 502.184 97.9711 501.284 98.1909C498.164 98.9448 495.693 98.8925 491.977 98.8296C489.705 98.7878 486.952 98.6621 485.612 98.5155" stroke="#606C38" stroke-miterlimit="10"/>
<path d="M479.488 94.7254C478.043 94.7568 475.07 94.7254 472.589 94.6835C467.836 94.5788 466.119 94.3066 464.695 93.982C461.262 93.1758 459.848 92.0974 458.99 91.0922C458.582 90.6106 457.597 89.4589 457.932 88.4851C458.278 87.4591 459.911 87.124 461.387 86.9355C466.339 86.2969 470.652 87.1449 471.395 87.2915C477.562 88.4642 482.775 87.8988 487.036 87.4276C488.365 87.2811 492.553 86.7785 498.311 86.3702C501.42 86.1503 503.723 86.0456 505 87.5638C505.869 88.6003 506.173 90.286 505.566 91.511C505.346 91.9403 504.78 92.7989 501.546 93.6993C498.698 94.495 496.405 94.5893 495.84 94.6207C493.254 94.7254 489.297 94.8406 485.34 94.7463" stroke="#606C38" stroke-miterlimit="10"/>
<path d="M540.092 70.5392C538.291 70.4554 534.02 70.2984 530.576 70.4554C524.326 70.7276 522.326 71.4606 518.882 70.4554C517.196 69.9633 513.606 68.9058 512.088 65.9323C510.758 63.3043 511.993 61.0741 513.218 55.2422C514.789 47.8293 513.47 48.2167 514.851 42.2906C516.024 37.2753 517.207 32.2287 521.384 27.7056C522.693 26.2921 526.608 22.1773 532.952 21.0465C537.998 20.1461 541.966 21.591 545.651 22.9311C550.477 24.6901 553.523 26.9517 559.354 31.3597C565.95 36.3435 564.547 36.3121 571.425 41.5472C575.424 44.594 578.512 46.5938 581.988 50.8552C584.176 53.5356 585.38 55.7238 585.505 58.4042C585.537 59.1685 585.631 61.9222 583.872 64.3094C582.784 65.7857 581.046 67.0526 576.575 68.0787C571.31 69.2932 567.614 68.9372 562.621 68.8325C559.501 68.7697 552.277 69.3874 546.718 69.8063" stroke="#606C38" stroke-miterlimit="10"/>
<path d="M541.097 66.6547C538.04 66.3511 534.156 66.4349 532.46 66.5605C529.508 66.7804 527.854 67.2411 525.038 66.7594C523.321 66.4663 521.059 66.0579 520.463 64.5188C519.971 63.2729 520.808 61.8699 521.175 61.2626C522.86 58.5089 525.906 57.4514 529.215 56.4777C535.81 54.5512 539.108 53.5775 543.557 53.3262C548.885 53.0225 552.832 53.6822 557.397 54.4465C563.605 55.4935 561.605 55.8914 568.378 57.1897C568.378 57.1897 571.948 57.8702 575.801 60.5506C576.199 60.8228 576.942 61.3778 576.921 62.0793C576.9 62.8436 575.979 63.388 575.602 63.6079C573.456 64.8434 570.933 64.3094 568.18 64.121C565.698 63.9534 563.5 64.1733 559.124 64.634C558.109 64.7387 556.245 64.9795 552.508 65.4507C550.833 65.6601 548.54 65.8904 547.619 66.0161" stroke="#606C38" stroke-miterlimit="10"/>
<path d="M268.175 181.754C275.534 181.126 282.109 180.508 289.866 179.566C299.026 178.456 308.05 176.268 317.253 175.65C318.865 175.545 324.612 175.2 328.182 171.378C328.391 171.148 328.779 170.729 329.187 170.122C331.825 166.153 330.6 161.117 330.202 159.222C328.433 150.846 331.616 151.087 329.951 134.376C329.763 132.502 328.988 125.152 326.402 116.116C325.753 113.844 324.382 109.143 323.618 109.269C323.366 109.311 322.906 109.908 323.115 116.368C323.345 123.864 324.141 128.89 324.633 132.848C326.099 144.616 326.025 156.018 325.9 160.489C325.879 161.159 325.806 163.798 325.9 167.337C326.036 172.488 326.12 175.126 326.915 178.498C327.47 180.843 327.763 181.021 328.758 185.052C329.679 188.79 329.794 190.12 329.7 191.429C329.543 193.753 328.674 197.166 327.418 197.26C326.151 197.355 324.256 194.078 324.12 190.926C323.869 184.874 330.181 180.152 334.767 176.728C338.996 173.566 343.32 170.331 349.476 169.881C352.763 169.64 353.098 170.446 363.169 171.912C366.697 172.425 370.539 172.98 374.067 173.179C380.317 173.524 381.06 180.424 385.865 182.278C387.226 182.801 388.367 182.675 389.341 182.686C407.012 182.948 431.164 181.943 431.164 181.943C438.869 181.628 445.401 181.503 450.112 181.45C455.786 181.388 460.424 181.419 463.397 181.45" stroke="#606C38" stroke-miterlimit="10"/>
<path d="M331.762 126.314C332.16 122.87 332.809 116.535 335.06 110.818C339.331 100.013 345.853 93.4379 351.726 87.6584C357.296 82.1615 363.682 75.8689 372.674 72.9582C374.192 72.4661 378.663 72.0159 387.624 71.1154C389.33 70.9479 390.785 70.8223 391.665 71.7332C392.89 73.0001 392.471 75.7433 389.09 83.376C385.844 90.6947 384.232 94.3593 381.248 98.5683C376.537 105.227 371.826 109.112 366.917 113.153C361.536 117.582 357.222 121.132 350.501 123.812C349.298 124.294 345.571 125.236 338.127 127.121C334.191 128.115 332.328 128.534 331.752 127.738C330.893 126.524 333.531 123.288 335.678 120.755C344.21 110.651 351.486 103.845 351.486 103.845C363.001 93.0715 361.462 93.6264 367.901 88.1609C374.998 82.1406 380.003 78.8215 383.091 76.8845C386.074 75.0208 389.445 73.1781 391.351 72.1834" stroke="#606C38" stroke-miterlimit="10"/>
<path d="M320.697 129.801C319.817 126.817 318.383 121.111 314.07 116.347C309.767 111.593 305.192 109.426 301.288 107.625C294.619 104.547 289.196 103.814 281.407 102.756C274.477 101.814 268.991 101.071 264.772 102.348C264.05 102.568 261.401 103.437 257.811 103.782C256.177 103.939 254.523 103.971 254.22 103.971C249.833 104.044 248.368 103.5 248.137 103.971C247.666 104.924 253.026 108.337 257.873 111.677C268.164 118.776 268.447 120.252 279.376 127.508C286.516 132.24 288.892 133.267 291.143 133.999C296.713 135.811 301.319 135.717 304.941 135.622C309.369 135.507 319.755 135.224 320.77 131.361C321.367 129.089 318.467 126.471 316.959 125.1C312.667 121.236 308.323 120.535 303.319 119.111C298.168 117.655 301.644 118.074 283.417 110.902C283.417 110.902 275.901 107.939 266.72 105.751C265.631 105.489 263.757 105.091 261.328 104.997C259.915 104.945 257.067 103.814 256.345 103.877" stroke="#606C38" stroke-miterlimit="10"/>
<path d="M661.916 181.843C684.335 181.452 702.293 181.043 714.105 180.745C766.67 179.442 766.304 178.819 773.696 180.019C787.654 182.271 796.45 185.676 802.461 181.117C806.901 177.749 806.984 170.91 806.984 157.382C806.984 145.975 805.602 135.833 803.696 126.705C803.696 126.705 802.576 113.158 797.12 103.333C795.738 100.84 794.168 99.5276 793.005 98.7554C791.183 97.5644 790.283 97.6854 787.445 96.5596C785.696 95.8618 782.22 94.4475 779.215 91.619C777.853 90.335 775.864 88.4648 775.099 85.5805C774.45 83.1056 775.435 82.6683 774.89 79.9049C774.22 76.4902 772.115 74.1548 771.183 73.1407C769.55 71.3635 767.309 68.9258 763.77 68.3862C762.461 68.1815 760.063 68.7397 755.33 69.8469C749.948 71.1123 749.749 71.4008 749.77 71.4938C749.843 71.8846 753.78 70.7308 758.618 72.0428C760.911 72.6661 764.178 74.0525 764.178 74.0525C764.052 74.9178 763.728 76.0529 762.733 76.6112C761.204 77.4858 759.529 76.1739 756.764 76.0622C753.298 75.9227 752.869 77.8486 748.733 78.6209C743.529 79.5978 739.728 77.3741 739.267 78.258C738.911 78.9279 740.869 80.7144 743.183 81.5517C744.607 82.0728 746.188 82.231 750.796 81.5517C755.613 80.8446 756.105 80.3515 759.644 79.9049C762.063 79.6071 767.738 78.8907 768.492 80.4538C768.618 80.7237 768.827 81.5145 766.429 83.7476C762.901 87.032 759.204 88.3532 756.136 89.6C747.016 93.3124 748.356 94.4382 742.545 96.0013C736.88 97.5365 732.241 97.3784 730.607 97.2853C726.89 97.0713 721.644 96.7643 717.016 93.4426C715.728 92.5215 710.754 88.9394 711.246 84.8455C711.539 82.4357 713.476 81.989 714.545 78.0812C715.026 76.3227 715.518 74.5177 714.754 72.5917C713.874 70.3959 712.293 70.4145 708.984 67.1022C707.089 65.1948 705.686 63.7992 705.068 61.7987C704 58.3375 705.916 55.1089 706.513 54.1134C708.534 50.6987 710.806 50.3824 720.105 44.2322C724.262 41.4875 726.367 40.0732 727.927 38.3798C731.068 34.9558 730.628 33.4485 733.696 30.5177C735.037 29.2337 738.126 26.2749 742.963 25.391C748.827 24.321 754.021 26.8983 756.136 27.9497C758.586 29.1686 758.869 29.8292 762.723 31.7924C764.188 32.5367 766.796 33.8579 769.518 34.7232C774.251 36.2212 775.853 35.2071 782.901 35.8211C789.298 36.3794 792.963 36.6957 796.283 39.1149C796.859 39.5336 800.764 42.4644 801.435 47.3492C802.168 52.7736 798.398 56.914 797.11 58.3282C793.183 62.6361 790.461 61.6033 786.199 66.1904C785.518 66.9161 782.597 70.1726 781.257 75.1504C780.45 78.1278 779.34 82.2682 781.665 85.7573C782.817 87.4879 785.11 88.6788 789.696 91.0607C795.403 94.0288 796.398 93.6752 798.544 95.6384C800.031 96.9876 799.927 97.4993 803.079 102.775C807.435 110.06 808.607 110.73 809.665 110.823C811.686 111.009 813.403 109.148 815.225 107.166C816.387 105.901 818.586 103.203 820.785 96.1874C822.251 91.498 822.984 89.144 822.848 86.6784C822.681 83.8127 821.152 80.826 818.115 74.9736C814.806 68.6095 813.927 68.1257 812.346 63.9945C810.597 59.4168 810.408 56.6348 809.874 56.6814C809.162 56.7372 808.356 61.7987 809.665 66.9254C810.565 70.4517 812.136 73.8757 812.136 73.8757C812.785 75.2806 813.55 76.76 813.989 79.0024C814.283 80.4724 814.723 82.7427 813.78 83.2079C812.618 83.7848 811.058 80.7516 807.602 80.1003C804.45 79.5048 803.361 81.589 797.717 82.845C794.649 83.5243 790.565 84.4361 787.424 82.4822C785.707 81.4122 784.241 79.4676 784.126 77.3555C783.979 74.527 786.429 73.9501 786.806 70.7681C787.173 67.5953 785.215 64.0318 782.89 63.6317C781.602 63.4084 780.89 64.283 779.183 65.0925C776.105 66.5625 773.969 65.874 763.948 65.0925C755.937 64.4691 755.644 64.7854 753.864 63.9945C749.215 61.9476 747.089 58.0398 746.45 56.8581C745.812 55.6765 744.304 52.8108 744.597 48.996C745.005 43.6274 748.691 40.1104 749.948 38.9381C750.869 38.0821 751.665 37.5145 760.031 33.2625C768.147 29.1407 768.702 29.0104 770.115 27.7729C772.89 25.3631 772.597 24.2838 776.503 18.9897C778.921 15.6959 780.942 12.9605 784.115 10.2064C790.356 4.80062 796.932 2.90254 798.325 2.52107C802.649 1.33942 807.246 0.0740368 811.298 1.97211C814.021 3.2468 814.01 4.78201 817.885 8.19669C818.482 8.71773 821.927 11.7137 826.534 13.8723C835.236 17.9383 844.042 17.1102 845.267 16.9799C852.429 16.2263 853.414 13.7886 858.44 14.598C864.492 15.575 868.178 19.9201 868.942 20.8226C871.759 24.1442 872.293 27.3821 873.058 31.9785C873.864 36.8539 874.387 39.9802 872.649 43.6833C872.325 44.3718 870.136 48.8565 864.827 51.3686C861.958 52.727 859.298 52.9783 855.152 53.3783C848.702 54.0017 847.916 52.9131 845.686 54.1134C843.215 55.4346 843.822 56.9419 839.508 62.1616C837.634 64.4225 836.702 65.5577 835.183 66.5532C831.476 68.9816 829.33 67.8744 827.152 69.8469C824.335 72.3963 825.005 76.8624 825.298 78.807C825.906 82.8357 827.644 82.966 828.387 87.767C828.9 91.07 828.597 94.1684 828.597 94.1684C828.23 97.8157 827.309 98.6251 827.979 100.207C829.246 103.212 834.199 104.096 834.984 104.236C839.361 105.017 843.026 103.566 847.34 101.854C853.927 99.2392 854.209 97.2109 858.66 96.7271C859.633 96.6247 861.414 96.5317 862.157 95.4431C862.848 94.4289 862.377 92.9309 861.749 91.9633C860.063 89.3767 856.911 90.028 853.518 87.7577C850.796 85.9341 849.707 83.4405 849.194 82.2682C846.576 76.2576 850.042 70.3029 850.639 69.2794C854.356 62.9059 861.455 60.5985 867.937 58.4864C872.471 57.007 884.188 53.2016 895.529 57.5746C898.021 58.5329 903.989 60.8404 904.995 65.2599C905.644 68.0884 904.188 71.5031 903.969 72.0241C902.785 74.7503 901.487 75.2341 901.089 77.5137C900.607 80.2584 901.948 82.5659 902.325 83.1893C904.251 86.3807 906.733 86.055 911.791 89.7767C915.016 92.14 917.969 94.3172 918.377 97.6389C918.743 100.653 916.848 103.091 916.115 104.04C915.445 104.896 912.702 108.432 908.702 108.618C905.675 108.758 905.058 106.841 899.644 104.961C897.12 104.087 894.346 103.119 890.995 103.314C886.712 103.566 886.283 105.436 879.675 107.157C875.958 108.125 873.445 108.739 870.827 107.706C868.764 106.897 866.272 104.915 866.293 102.403C866.325 99.4346 869.832 97.397 872.262 96.7271C874.743 96.0478 875.162 97.062 878.031 96.541C882.398 95.7501 882.785 93.1356 886.471 92.8844C889.675 92.6611 891.895 94.4661 892.241 93.9823C892.565 93.5264 890.932 91.4887 888.534 90.8747C887.372 90.5769 886.482 90.7351 881.738 91.7865C877.56 92.7169 876.785 92.9216 876.387 92.5215C875.56 91.7027 877.78 89.9163 878.45 85.9341C878.859 83.4591 878.126 83.4498 878.66 81.1796C879.382 78.0999 881.099 76.6112 880.304 75.69C879.832 75.1411 878.67 75.048 877.832 75.3272C875.979 75.932 875.728 78.2766 874.743 82.0914C873.602 86.5202 872.66 90.028 870.209 93.4333C869.11 94.9685 867.78 96.7643 865.267 98.011C862.67 99.2857 861.958 98.4204 858.88 99.6579C856.67 100.542 856.576 101.184 851.466 104.598C849.403 105.985 848.366 106.673 847.759 106.98C843.801 108.962 841.696 108.041 836.23 109.176C833.518 109.744 829.466 110.628 825.937 113.382C823.267 115.466 822 117.773 821.403 118.871C818.031 125.133 819.351 132.558 824.283 155.279C824.702 157.205 826 163.039 829.016 170.277C832.346 178.251 834.702 180.587 837.455 181.619C841.079 182.978 844.785 181.833 846.157 181.433C849.131 180.577 863.623 180.484 892.607 180.298C913.539 180.168 911.236 182.596 938.429 183.694C956.743 184.429 961.372 183.471 995.707 183.127C1012.07 182.969 1025.38 183.043 1033.88 183.127" stroke="#606C38" stroke-miterlimit="10"/>
<path d="M1032 183.08C1038.04 181.682 1047.5 179.494 1059.15 176.793C1084.51 170.891 1088.09 169.994 1093.95 168.927C1121.48 163.921 1124.56 168.649 1137.07 165.255C1138.64 164.828 1143.91 163.323 1149.54 165.255C1150.96 165.746 1154.06 166.856 1156.29 169.973C1157.07 171.051 1159.4 174.317 1158.37 178.362C1157.38 182.226 1154.05 183.944 1153.69 184.126C1149.92 185.994 1145.72 184.585 1143.31 182.557C1141.35 180.913 1140.4 178.714 1139.67 175.736C1138.18 169.642 1138.88 165.415 1139.67 157.058C1141.39 138.934 1139.67 142.713 1140.99 136.052C1141.22 134.9 1142.96 126.361 1140.99 125.379C1140.09 124.931 1139.2 125.08 1139.2 125.08C1138.36 125.219 1138.17 125.678 1137.57 125.827C1136.32 126.137 1134.4 124.824 1133.99 123.266C1133.63 121.942 1134.54 121.099 1135.63 118.601C1135.63 118.601 1136.39 116.851 1137.27 113.03C1137.29 112.944 1137.31 112.848 1137.33 112.72C1138.08 108.75 1136.68 102.495 1136.68 102.495C1134.23 92.0989 1135.28 89.2171 1135.63 88.3525C1136.28 86.7835 1137.08 85.9296 1137.57 85.492C1139.24 83.9977 1141.19 83.7629 1143.83 83.5388C1150.89 82.9411 1154.48 82.6529 1156.8 83.6882C1158.19 84.3073 1160.61 85.3746 1161.57 87.7548C1162.31 89.58 1161.61 90.7434 1161.13 94.3724C1160.91 95.9947 1160.94 98.6098 1160.98 103.85C1161.02 108.91 1161.06 111.471 1161.72 112.88C1162.28 114.076 1163.63 116.349 1165.6 118.601C1167.03 120.234 1168.11 121.088 1167.99 122.369C1167.89 123.532 1166.83 124.589 1165.75 124.931C1164.76 125.24 1163.81 124.931 1162.03 124.333C1160.26 123.746 1159.7 123.255 1159.19 123.586C1158.51 124.023 1159.09 125.187 1158.29 126.147C1157.48 127.129 1155.91 127.065 1155.46 127.055C1153.21 126.969 1152.6 125.358 1151.13 125.699C1150.01 125.955 1150.19 126.927 1148.74 127.652C1147.44 128.303 1145.48 128.442 1144.27 127.503C1143.46 126.873 1143.54 126.179 1142.35 125.165C1141.76 124.674 1141.21 124.376 1140.84 124.205" stroke="#606C38" stroke-miterlimit="10"/>
<path d="M1135.74 97.6839C1134.66 97.7049 1130.9 97.6944 1129.05 97.663C1125.23 97.5897 1120.21 97.4955 1114.47 96.4589C1112.76 96.1448 1107.86 95.1816 1102.63 93.0038C1101.85 92.6792 1101.26 92.407 1100.63 92.0929C1098.42 90.9725 1094.37 89.0984 1093.1 86.0515C1092.56 84.7323 1091.98 82.3032 1093.66 77.7801C1094.73 74.8694 1096.94 70.5242 1109.27 60.3158C1117.71 53.3112 1123.38 49.8037 1125.33 48.6101C1132.57 44.2231 1136.66 42.8305 1138.34 42.2966C1142.35 41.0192 1145.73 39.9512 1150.14 40.3491C1154.58 40.747 1157.65 42.4536 1163.61 45.8355C1170.24 49.6048 1169.88 50.5471 1175.41 53.552C1181.12 56.6512 1181.64 55.7194 1189.8 59.4991C1197.7 63.1532 1201.21 65.8755 1203.74 68.3255C1208.29 72.7439 1208.79 75.4871 1208.75 77.1519C1208.71 79.0784 1207.93 80.5023 1207.08 82.0729C1204.62 86.6065 1200.96 89.067 1199.83 89.7894C1197.95 90.983 1196.67 91.3809 1184.78 93.6006C1175.3 95.37 1172.6 95.7784 1168.9 96.0192C1165.93 96.2181 1163.44 96.2286 1161.65 96.2076" stroke="#606C38" stroke-miterlimit="10"/>
<path d="M1093.3 82.7218C1096.16 81.0675 1099.52 79.9262 1101.21 79.6749C1104.38 79.2142 1105.94 79.8529 1109.45 79.141C1111.61 78.7012 1112.79 78.1044 1114.65 77.3506C1118.15 75.9266 1121.88 75.089 1129.33 73.4138C1135.46 72.0317 1134.78 72.461 1140.8 71.0894C1148.38 69.3618 1148.42 68.922 1151.73 68.5765C1155.23 68.2205 1154.55 68.7754 1163.73 68.7545C1167.72 68.7545 1169.1 68.6393 1172.87 68.7545C1175.75 68.8383 1175.65 68.922 1179.68 69.1105C1185.08 69.3618 1190.78 69.4665 1191.14 69.4665C1195.36 69.5398 1196.33 69.4874 1198.31 69.8225C1201.75 70.3983 1205.43 71.7804 1207.33 72.5761" stroke="#606C38" stroke-miterlimit="10"/>
<path d="M1135.22 94.1133C1134.24 94.8881 1130.57 96.9193 1129.59 97.6941" stroke="#606C38" stroke-miterlimit="10"/>
<path d="M1134.62 91.8418C1132.73 92.3444 1129.9 92.9516 1127.82 93.6636C1125.29 94.5326 1121.95 96.2707 1119.83 97.2025" stroke="#606C38" stroke-miterlimit="10"/>
<path d="M1134.62 90.0929C1133.05 90.051 1129.76 90.0719 1126.91 90.3127C1122.89 90.6583 1122.7 91.0666 1118.71 91.4226C1114.52 91.7995 1113.41 91.4645 1109.39 92.0299C1107.55 92.2916 1104.34 93.0455 1103.34 93.2758" stroke="#606C38" stroke-miterlimit="10"/>
<path d="M1135.41 88.3759C1133.68 88.355 1130.07 87.5592 1126.73 87.3289C1122.51 87.0357 1121.53 86.7635 1115.93 86.2609C1113.55 86.041 1110.27 85.7479 1105.96 85.5071C1103.02 85.3395 1100.4 85.2453 1096.61 84.6904C1095.22 84.481 1094.06 84.2716 1093.28 84.125" stroke="#606C38" stroke-miterlimit="10"/>
<path d="M1136.26 86.5748C1135.1 86.3026 1132.12 85.2661 1129.78 84.5227C1125.91 83.2977 1124.14 82.3972 1120.21 81.0256C1118.65 80.4812 1115.43 79.0886 1112.4 78.272" stroke="#606C38" stroke-miterlimit="10"/>
<path d="M1137.5 85.099C1136.51 84.3032 1134.14 83.0468 1133.07 82.2406C1130.9 80.5968 1125.07 76.2621 1122.99 74.8486" stroke="#606C38" stroke-miterlimit="10"/>
<path d="M1138.57 84.1249C1138.32 83.2244 1137.56 81.2246 1136.92 80.1462C1136.08 78.7327 1135.4 78.2616 1134.51 76.8271C1134.02 76.0419 1133.04 73.9269 1132.65 72.6914" stroke="#606C38" stroke-miterlimit="10"/>
<path d="M1141.97 84.1251C1141.71 83.5388 1141.17 81.895 1140.73 80.649C1139.99 78.5759 1139.81 77.4975 1139.12 75.3406C1138.85 74.4821 1138.41 72.6289 1137.76 71.0479" stroke="#606C38" stroke-miterlimit="10"/>
<path d="M1145.08 83.7584C1145.04 83.0988 1145.2 81.2561 1145.28 79.8531C1145.4 77.5182 1145.75 76.2932 1145.99 73.8641C1146.08 72.9008 1146.51 70.7859 1146.49 69.0269" stroke="#606C38" stroke-miterlimit="10"/>
<path d="M1149.19 83.7583C1149.17 83.0254 1149.26 81.1094 1149.29 79.6226C1149.35 77.1516 1149.53 75.9895 1149.65 73.4557C1149.71 72.4505 1149.93 70.3669 1149.91 68.4404" stroke="#606C38" stroke-miterlimit="10"/>
<path d="M1157.09 68.9746C1156.48 70.8383 1156 72.4402 1155.63 73.7071C1155.24 75.0473 1154.84 76.4503 1154.38 78.3454C1153.99 79.9055 1153.71 81.2352 1153.51 82.2299" stroke="#606C38" stroke-miterlimit="10"/>
<path d="M1164.66 68.7441C1164.28 69.4247 1163.33 71.6863 1162.56 73.0369C1161.04 75.7382 1160.97 75.822 1160.65 76.5235C1159.81 78.3349 1159.84 78.8793 1158.99 80.4498C1158.48 81.4131 1157.57 83.1511 1157.21 83.6328" stroke="#606C38" stroke-miterlimit="10"/>
<path d="M1174.1 68.7861C1173.59 69.3411 1171.88 71.2466 1170.85 72.3355C1169.07 74.2097 1168.63 74.5971 1167.55 75.8221C1166.27 77.2356 1165.64 77.9476 1164.84 79.0469C1163.7 80.6384 1163.37 81.4551 1162.06 83.057C1161.45 83.8004 1160.92 84.3658 1160.57 84.7113" stroke="#606C38" stroke-miterlimit="10"/>
<path d="M1161.44 86.826C1163.35 85.5276 1165.68 83.8105 1167.02 82.9206C1171.81 79.7272 1172.42 79.4235 1174.22 78.0205C1175.63 76.9211 1175.77 76.7013 1178.73 74.3245C1180.16 73.1728 1184.1 69.9166 1184.87 69.2988" stroke="#606C38" stroke-miterlimit="10"/>
<path d="M1197.4 69.6865C1196.58 70.2833 1194.07 72.2203 1192.72 73.1312C1191.49 73.9688 1188.92 75.6964 1186.13 77.3298C1184.57 78.2407 1182.03 79.4866 1177.03 81.9262C1171.76 84.5019 1170.5 85.0463 1168.93 85.6222C1166.5 86.5226 1163.53 88.2188 1162.12 88.5643" stroke="#606C38" stroke-miterlimit="10"/>
<path d="M1207.84 74.2725C1205.99 75.152 1202.29 76.8691 1199.03 78.3244C1193.64 80.7221 1190.95 81.9262 1187.73 83.0256C1184.37 84.1668 1185.6 83.4862 1177.12 85.9258C1173.68 86.9205 1170.97 87.7476 1166.62 88.8261C1165.02 89.2239 1162.78 89.7474 1161.9 89.9464" stroke="#606C38" stroke-miterlimit="10"/>
<path d="M1203.81 87.0356C1201.28 87.2032 1194.67 87.2974 1190.02 87.8314C1182.66 88.669 1178.98 89.0878 1175.92 89.737C1173.46 90.25 1169.75 91.14 1164.52 91.2342C1163.72 91.2447 1161.88 90.8782 1161.44 90.8677" stroke="#606C38" stroke-miterlimit="10"/>
<path d="M1161.44 92.0928C1162.29 92.5639 1164.83 93.6842 1165.92 94.1345C1166.69 94.4486 1169.73 95.6631 1170.42 95.883" stroke="#606C38" stroke-miterlimit="10"/>
<path d="M1160.07 123.733C1160.13 125.461 1160.24 128.33 1160.34 131.89C1160.6 140.433 1160.59 143.323 1160.96 148.192C1161.37 153.668 1161.57 156.411 1161.99 157.437C1162.88 159.636 1165.33 163.981 1178.58 169.562C1184.82 172.19 1190.37 173.791 1197.88 175.561C1210.91 178.618 1221.09 180.095 1224.2 180.534C1234.35 181.969 1244.01 182.89 1255.93 183.602C1271.57 184.544 1281.9 184.597 1300.33 184.775" stroke="#606C38" stroke-miterlimit="10"/>
<path d="M1495.04 184.429C1506.25 182.995 1526.53 181.99 1533.2 180.189C1549.81 175.707 1553.62 172.367 1555.76 169.938C1560.69 164.316 1561.97 157.563 1562.73 153.532C1564.19 145.846 1562.26 144.224 1563.55 131.795C1564.19 125.67 1565.19 120.927 1565.6 119.074C1566.54 114.844 1566.95 114.164 1569.7 104.719C1572.75 94.2492 1572.24 95.0973 1574.22 88.7209C1576.31 81.9676 1577.12 80.3029 1578.13 75.7169C1579.15 71.1624 1579.58 65.9273 1579.79 63.3726" stroke="#606C38" stroke-miterlimit="10"/>
<path d="M1570.3 63.7495C1576.29 63.3412 1582.27 62.9224 1588.26 62.514" stroke="#606C38" stroke-miterlimit="10"/>
<path d="M1574.89 63.7495C1572.57 71.2043 1570.17 79.3501 1568.45 84.1769C1565.89 91.349 1563.76 96.7726 1562.05 101.097C1559.89 106.604 1559.63 107.033 1555.04 118.226C1551.78 126.152 1548.34 134.005 1545.13 141.951C1545.13 141.951 1542.06 149.595 1538.74 154.956C1538.66 155.071 1538.5 155.343 1538.29 155.709C1537.26 157.489 1535.47 160.557 1535.23 163.824C1535.14 165.143 1534.82 169.321 1537.5 171.048C1540.26 172.818 1544 170.619 1544.31 170.43C1544.91 170.064 1547.24 168.661 1547.41 166.515C1547.58 164.222 1545.21 162.327 1544.31 161.562C1542.41 159.96 1539.54 155.27 1533.79 145.878C1529 138.067 1526.38 130.958 1524.92 126.895C1523.64 123.356 1523.77 123.137 1521 115.137C1519.41 110.541 1518.75 108.824 1518.11 106.06C1517.08 101.599 1516.88 97.1599 1516.88 94.668" stroke="#606C38" stroke-miterlimit="10"/>
<path d="M1511.81 94.6576C1511.83 96.2595 1511.9 99.1388 1512.11 101.547C1512.34 104.238 1512.82 108.164 1513.89 112.74C1514.76 116.519 1515.96 119.88 1518.33 126.602C1520.23 131.973 1521.22 134.685 1521.22 134.685C1522.3 137.638 1523.08 139.669 1523.89 142.695C1524.43 144.653 1524.74 145.815 1524.97 147.438C1525.38 150.359 1525.08 151.741 1524.97 155.196C1524.85 159.353 1524.75 162.18 1525.53 165.614C1526.25 168.818 1527.39 171.132 1528.3 172.933C1529.88 176.074 1531.12 178.534 1533.2 180.168C1536.62 182.859 1540.87 182.189 1545.25 181.906C1553.65 181.372 1550.3 183.068 1568.36 183.874C1577.72 184.293 1582.67 184.021 1592.76 183.874C1599.73 183.77 1609.77 183.927 1629.86 184.22C1651.24 184.534 1655.25 184.796 1671.35 184.911C1682.07 184.984 1690.77 184.953 1696.2 184.911" stroke="#606C38" stroke-miterlimit="10"/>
<path d="M1505.16 94.2911C1511.46 94.2388 1517.75 94.1969 1524.04 94.1445" stroke="#606C38" stroke-miterlimit="10"/>
<path d="M1511.6 101.442C1507.43 101.442 1503.1 101.212 1500.43 100.992C1496.27 100.646 1493.92 100.249 1491.35 99.2958C1487.33 97.8195 1486.2 96.2909 1485.78 95.6313C1485.55 95.2648 1484.37 93.3592 1484.65 90.8359C1484.88 88.7523 1485.95 87.3807 1487.04 86.0406C1488.52 84.2292 1490.18 83.067 1493.46 80.8264C1496.81 78.5334 1497.7 78.2193 1498.75 76.6697C1499.7 75.2458 1499.48 74.7013 1500.44 72.5863C1500.65 72.1152 1501.99 69.2254 1504.6 66.5974C1505.75 65.4352 1508.35 62.8909 1512.63 61.7392C1513.98 61.3727 1517.96 60.3048 1522.15 62.0219C1523.92 62.7548 1525.44 64.2206 1528.49 67.1628C1532.12 70.6808 1533.94 72.4502 1535.12 74.9107C1536.31 77.434 1536.03 78.4601 1537.72 81.1824C1538.5 82.4283 1539.43 83.9151 1541.18 85.2658C1543.05 86.7211 1543.83 86.428 1544.77 87.6634C1545.97 89.234 1546.11 91.506 1545.54 93.2336C1544.91 95.1392 1543.52 96.1129 1541.31 97.5997C1537.62 100.092 1534.18 100.971 1533.28 101.191C1530.16 101.945 1527.69 101.892 1523.98 101.83C1521.71 101.788 1518.95 101.662 1517.61 101.516" stroke="#606C38" stroke-miterlimit="10"/>
<path d="M1511.49 97.7254C1510.04 97.7568 1507.07 97.7254 1504.59 97.6835C1499.84 97.5788 1498.12 97.3066 1496.7 96.982C1493.26 96.1758 1491.85 95.0974 1490.99 94.0922C1490.58 93.6106 1489.6 92.4589 1489.93 91.4851C1490.28 90.4591 1491.91 90.124 1493.39 89.9355C1498.34 89.2969 1502.65 90.1449 1503.4 90.2915C1509.56 91.4642 1514.77 90.8988 1519.04 90.4276C1520.37 90.2811 1524.55 89.7785 1530.31 89.3702C1533.42 89.1503 1535.72 89.0456 1537 90.5638C1537.87 91.6003 1538.17 93.286 1537.57 94.511C1537.35 94.9403 1536.78 95.7989 1533.55 96.6993C1530.7 97.495 1528.41 97.5893 1527.84 97.6207C1525.25 97.7254 1521.3 97.8406 1517.34 97.7463" stroke="#606C38" stroke-miterlimit="10"/>
<path d="M1572.09 73.5392C1570.29 73.4554 1566.02 73.2984 1562.58 73.4554C1556.33 73.7276 1554.33 74.4606 1550.88 73.4554C1549.2 72.9633 1545.61 71.9058 1544.09 68.9323C1542.76 66.3043 1543.99 64.0741 1545.22 58.2422C1546.79 50.8293 1545.47 51.2167 1546.85 45.2906C1548.02 40.2753 1549.21 35.2287 1553.38 30.7056C1554.69 29.2921 1558.61 25.1773 1564.95 24.0465C1570 23.1461 1573.97 24.591 1577.65 25.9311C1582.48 27.6901 1585.52 29.9517 1591.35 34.3597C1597.95 39.3435 1596.55 39.3121 1603.42 44.5472C1607.42 47.594 1610.51 49.5938 1613.99 53.8552C1616.18 56.5356 1617.38 58.7238 1617.51 61.4042C1617.54 62.1685 1617.63 64.9222 1615.87 67.3094C1614.78 68.7857 1613.05 70.0526 1608.58 71.0787C1603.31 72.2932 1599.61 71.9372 1594.62 71.8325C1591.5 71.7697 1584.28 72.3874 1578.72 72.8063" stroke="#606C38" stroke-miterlimit="10"/>
<path d="M1573.1 69.6547C1570.04 69.3511 1566.16 69.4349 1564.46 69.5605C1561.51 69.7804 1559.85 70.2411 1557.04 69.7594C1555.32 69.4663 1553.06 69.0579 1552.46 67.5188C1551.97 66.2729 1552.81 64.8699 1553.17 64.2626C1554.86 61.5089 1557.91 60.4514 1561.21 59.4777C1567.81 57.5512 1571.11 56.5775 1575.56 56.3262C1580.89 56.0225 1584.83 56.6822 1589.4 57.4465C1595.6 58.4935 1593.61 58.8914 1600.38 60.1897C1600.38 60.1897 1603.95 60.8702 1607.8 63.5506C1608.2 63.8228 1608.94 64.3778 1608.92 65.0793C1608.9 65.8436 1607.98 66.388 1607.6 66.6079C1605.46 67.8434 1602.93 67.3094 1600.18 67.121C1597.7 66.9534 1595.5 67.1733 1591.12 67.634C1590.11 67.7387 1588.25 67.9795 1584.51 68.4507C1582.83 68.6601 1580.54 68.8904 1579.62 69.0161" stroke="#606C38" stroke-miterlimit="10"/>
<path d="M1300.17 184.754C1307.53 184.126 1314.11 183.508 1321.87 182.566C1331.03 181.456 1340.05 179.268 1349.25 178.65C1350.86 178.545 1356.61 178.2 1360.18 174.378C1360.39 174.148 1360.78 173.729 1361.19 173.122C1363.83 169.153 1362.6 164.117 1362.2 162.222C1360.43 153.846 1363.62 154.087 1361.95 137.376C1361.76 135.502 1360.99 128.152 1358.4 119.116C1357.75 116.844 1356.38 112.143 1355.62 112.269C1355.37 112.311 1354.91 112.908 1355.12 119.368C1355.35 126.864 1356.14 131.89 1356.63 135.848C1358.1 147.616 1358.03 159.018 1357.9 163.489C1357.88 164.159 1357.81 166.798 1357.9 170.337C1358.04 175.488 1358.12 178.126 1358.92 181.498C1359.47 183.843 1359.76 184.021 1360.76 188.052C1361.68 191.79 1361.79 193.12 1361.7 194.429C1361.54 196.753 1360.67 200.166 1359.42 200.26C1358.15 200.355 1356.26 197.078 1356.12 193.926C1355.87 187.874 1362.18 183.152 1366.77 179.728C1371 176.566 1375.32 173.331 1381.48 172.881C1384.76 172.64 1385.1 173.446 1395.17 174.912C1398.7 175.425 1402.54 175.98 1406.07 176.179C1412.32 176.524 1413.06 183.424 1417.87 185.278C1419.23 185.801 1420.37 185.675 1421.34 185.686C1439.01 185.948 1463.16 184.943 1463.16 184.943C1470.87 184.628 1477.4 184.503 1482.11 184.45C1487.79 184.388 1492.42 184.419 1495.4 184.45" stroke="#606C38" stroke-miterlimit="10"/>
<path d="M1363.76 129.314C1364.16 125.87 1364.81 119.535 1367.06 113.818C1371.33 103.013 1377.85 96.4379 1383.73 90.6584C1389.3 85.1615 1395.68 78.8689 1404.67 75.9582C1406.19 75.4661 1410.66 75.0159 1419.62 74.1154C1421.33 73.9479 1422.79 73.8223 1423.66 74.7332C1424.89 76.0001 1424.47 78.7433 1421.09 86.376C1417.84 93.6947 1416.23 97.3593 1413.25 101.568C1408.54 108.227 1403.83 112.112 1398.92 116.153C1393.54 120.582 1389.22 124.132 1382.5 126.812C1381.3 127.294 1377.57 128.236 1370.13 130.121C1366.19 131.115 1364.33 131.534 1363.75 130.738C1362.89 129.524 1365.53 126.288 1367.68 123.755C1376.21 113.651 1383.49 106.845 1383.49 106.845C1395 96.0715 1393.46 96.6264 1399.9 91.1609C1407 85.1406 1412 81.8215 1415.09 79.8845C1418.07 78.0208 1421.45 76.1781 1423.35 75.1834" stroke="#606C38" stroke-miterlimit="10"/>
<path d="M1352.7 132.801C1351.82 129.817 1350.38 124.111 1346.07 119.347C1341.77 114.593 1337.19 112.426 1333.29 110.625C1326.62 107.547 1321.2 106.814 1313.41 105.756C1306.48 104.814 1300.99 104.071 1296.77 105.348C1296.05 105.568 1293.4 106.437 1289.81 106.782C1288.18 106.939 1286.52 106.971 1286.22 106.971C1281.83 107.044 1280.37 106.5 1280.14 106.971C1279.67 107.924 1285.03 111.337 1289.87 114.677C1300.16 121.776 1300.45 123.252 1311.38 130.508C1318.52 135.24 1320.89 136.267 1323.14 136.999C1328.71 138.811 1333.32 138.717 1336.94 138.622C1341.37 138.507 1351.75 138.224 1352.77 134.361C1353.37 132.089 1350.47 129.471 1348.96 128.1C1344.67 124.236 1340.32 123.535 1335.32 122.111C1330.17 120.655 1333.64 121.074 1315.42 113.902C1315.42 113.902 1307.9 110.939 1298.72 108.751C1297.63 108.489 1295.76 108.091 1293.33 107.997C1291.91 107.945 1289.07 106.814 1288.34 106.877" stroke="#606C38" stroke-miterlimit="10"/>
<path d="M1645 184.878C1658.98 184.487 1670.18 184.077 1677.55 183.779C1710.34 182.477 1710.11 181.853 1714.72 183.054C1723.42 185.306 1728.91 188.712 1732.66 184.152C1735.43 180.783 1735.48 173.943 1735.48 160.412C1735.48 149.003 1734.62 138.859 1733.43 129.73C1733.43 129.73 1732.73 116.18 1729.33 106.353C1728.47 103.859 1727.49 102.547 1726.76 101.774C1725.62 100.583 1725.06 100.704 1723.29 99.5779C1722.2 98.88 1720.03 97.4655 1718.16 94.6364C1717.31 93.3522 1716.07 91.4817 1715.59 88.5968C1715.19 86.1213 1715.8 85.684 1715.46 82.9201C1715.04 79.5047 1713.73 77.1689 1713.15 76.1545C1712.13 74.3771 1710.73 71.9389 1708.53 71.3991C1707.71 71.1944 1706.21 71.7528 1703.26 72.8602C1699.91 74.1258 1699.78 74.4143 1699.79 74.5074C1699.84 74.8982 1702.3 73.7443 1705.31 75.0564C1706.74 75.6799 1708.78 77.0665 1708.78 77.0665C1708.7 77.932 1708.5 79.0673 1707.88 79.6257C1706.93 80.5005 1705.88 79.1883 1704.16 79.0766C1702 78.9371 1701.73 80.8634 1699.15 81.6358C1695.9 82.613 1693.53 80.3888 1693.24 81.2729C1693.02 81.9429 1694.24 83.7297 1695.69 84.5672C1696.58 85.0884 1697.56 85.2466 1700.43 84.5672C1703.44 83.86 1703.75 83.3667 1705.95 82.9201C1707.46 82.6223 1711 81.9057 1711.47 83.4691C1711.55 83.739 1711.68 84.53 1710.19 86.7635C1707.98 90.0485 1705.68 91.37 1703.77 92.617C1698.08 96.3301 1698.91 97.4562 1695.29 99.0196C1691.76 100.555 1688.86 100.397 1687.84 100.304C1685.52 100.09 1682.25 99.7827 1679.37 96.4604C1678.56 95.5391 1675.46 91.9563 1675.77 87.8616C1675.95 85.4513 1677.16 85.0046 1677.82 81.0961C1678.13 79.3372 1678.43 77.5318 1677.96 75.6055C1677.41 73.4092 1676.42 73.4278 1674.36 70.1149C1673.17 68.2071 1672.3 66.8112 1671.91 64.8104C1671.25 61.3486 1672.44 58.1193 1672.82 57.1236C1674.08 53.7083 1675.49 53.3919 1681.29 47.2405C1683.89 44.4952 1685.2 43.0807 1686.17 41.387C1688.13 37.9624 1687.86 36.4548 1689.77 33.5234C1690.61 32.2391 1692.53 29.2798 1695.55 28.3957C1699.21 27.3255 1702.45 29.9033 1703.77 30.9549C1705.29 32.174 1705.47 32.8347 1707.87 34.7983C1708.79 35.5428 1710.41 36.8642 1712.11 37.7297C1715.06 39.228 1716.06 38.2136 1720.46 38.8278C1724.45 39.3862 1726.74 39.7026 1728.81 42.1222C1729.16 42.541 1731.6 45.4724 1732.02 50.3581C1732.48 55.7835 1730.12 59.9247 1729.32 61.3392C1726.87 65.648 1725.17 64.615 1722.52 69.2029C1722.09 69.9288 1720.27 73.1859 1719.43 78.1646C1718.93 81.1426 1718.24 85.2838 1719.69 88.7736C1720.41 90.5045 1721.84 91.6957 1724.7 94.078C1728.26 97.0467 1728.88 96.6931 1730.22 98.6566C1731.14 100.006 1731.08 100.518 1733.04 105.794C1735.76 113.081 1736.49 113.751 1737.15 113.844C1738.41 114.03 1739.48 112.169 1740.62 110.187C1741.35 108.921 1742.72 106.222 1744.09 99.2057C1745 94.5154 1745.46 92.161 1745.37 89.6949C1745.27 86.8286 1744.32 83.8414 1742.42 77.9878C1740.36 71.6225 1739.81 71.1386 1738.82 67.0067C1737.73 62.4281 1737.62 59.6455 1737.28 59.6921C1736.84 59.7479 1736.34 64.8104 1737.15 69.9381C1737.71 73.4651 1738.69 76.8897 1738.69 76.8897C1739.1 78.2949 1739.58 79.7746 1739.85 82.0174C1740.03 83.4877 1740.31 85.7584 1739.72 86.2237C1738.99 86.8007 1738.02 83.7669 1735.87 83.1155C1733.9 82.5199 1733.22 84.6045 1729.7 85.8608C1727.79 86.5401 1725.24 87.4521 1723.28 85.4978C1722.21 84.4276 1721.29 82.4827 1721.22 80.3702C1721.13 77.5411 1722.66 76.9642 1722.9 73.7815C1723.12 70.6081 1721.9 67.0439 1720.45 66.6437C1719.65 66.4204 1719.2 67.2951 1718.14 68.1048C1716.22 69.5751 1714.89 68.8865 1708.64 68.1048C1703.64 67.4813 1703.46 67.7977 1702.35 67.0067C1699.45 64.9593 1698.12 61.0508 1697.72 59.8689C1697.33 58.687 1696.39 55.8207 1696.57 52.0052C1696.82 46.6356 1699.12 43.1179 1699.91 41.9454C1700.48 41.0892 1700.98 40.5215 1706.2 36.2687C1711.26 32.1461 1711.6 32.0158 1712.48 30.7781C1714.22 28.3678 1714.03 27.2883 1716.47 21.9931C1717.98 18.6988 1719.24 15.9628 1721.22 13.2082C1725.11 7.80135 1729.21 5.90291 1730.08 5.52136C1732.78 4.33949 1735.64 3.07386 1738.17 4.9723C1739.87 6.24723 1739.86 7.78274 1742.28 11.1981C1742.65 11.7192 1744.8 14.7158 1747.67 16.8748C1753.1 20.9415 1758.59 20.1133 1759.36 19.983C1763.82 19.2292 1764.44 16.791 1767.57 17.6007C1771.35 18.5778 1773.65 22.9237 1774.12 23.8264C1775.88 27.1487 1776.21 30.3872 1776.69 34.9844C1777.19 39.8608 1777.52 42.9877 1776.44 46.6915C1776.23 47.3801 1774.87 51.8657 1771.56 54.3783C1769.77 55.737 1768.11 55.9882 1765.52 56.3884C1761.5 57.0119 1761.01 55.9231 1759.62 57.1236C1758.08 58.4451 1758.46 59.9526 1755.77 65.1734C1754.6 67.4347 1754.02 68.5701 1753.07 69.5658C1750.76 71.9947 1749.42 70.8873 1748.06 72.8602C1746.3 75.41 1746.72 79.877 1746.9 81.8219C1747.28 85.8515 1748.37 85.9818 1748.83 90.7837C1749.15 94.0874 1748.96 97.1863 1748.96 97.1863C1748.73 100.834 1748.16 101.644 1748.57 103.226C1749.37 106.232 1752.45 107.116 1752.94 107.255C1755.67 108.037 1757.96 106.585 1760.65 104.873C1764.76 102.258 1764.93 100.229 1767.71 99.7455C1768.32 99.6431 1769.43 99.55 1769.89 98.4612C1770.32 97.4468 1770.03 95.9486 1769.64 94.9807C1768.59 92.3936 1766.62 93.0451 1764.5 90.7744C1762.81 88.9504 1762.13 86.4564 1761.81 85.2838C1760.17 79.2721 1762.34 73.3162 1762.71 72.2925C1765.03 65.9178 1769.45 63.6099 1773.5 61.4975C1776.32 60.0178 1783.63 56.2116 1790.71 60.5855C1792.26 61.544 1795.98 63.8519 1796.61 68.2723C1797.02 71.1013 1796.11 74.5167 1795.97 75.0378C1795.23 77.7645 1794.42 78.2484 1794.17 80.5284C1793.87 83.2737 1794.71 85.5816 1794.94 86.2051C1796.15 89.3971 1797.69 89.0714 1800.85 92.7938C1802.86 95.1576 1804.7 97.3352 1804.96 100.657C1805.19 103.673 1804 106.111 1803.55 107.06C1803.13 107.916 1801.42 111.453 1798.92 111.639C1797.03 111.778 1796.65 109.861 1793.27 107.981C1791.7 107.107 1789.97 106.139 1787.88 106.334C1785.21 106.585 1784.94 108.456 1780.82 110.178C1778.5 111.145 1776.93 111.76 1775.3 110.727C1774.01 109.917 1772.46 107.935 1772.47 105.422C1772.49 102.454 1774.68 100.415 1776.19 99.7455C1777.74 99.0661 1778 100.08 1779.79 99.5593C1782.52 98.7683 1782.76 96.1533 1785.06 95.902C1787.06 95.6787 1788.44 97.4841 1788.66 97.0002C1788.86 96.5442 1787.84 94.5061 1786.34 93.8919C1785.62 93.5941 1785.06 93.7523 1782.1 94.8039C1779.5 95.7345 1779.02 95.9393 1778.77 95.5391C1778.25 94.7202 1779.64 92.9334 1780.05 88.9504C1780.31 86.475 1779.85 86.4657 1780.18 84.195C1780.64 81.1147 1781.71 79.6257 1781.21 78.7044C1780.92 78.1553 1780.19 78.0623 1779.67 78.3415C1778.51 78.9464 1778.36 81.2915 1777.74 85.107C1777.03 89.5367 1776.44 93.0451 1774.91 96.4511C1774.23 97.9866 1773.4 99.7827 1771.83 101.03C1770.21 102.305 1769.77 101.439 1767.85 102.677C1766.47 103.561 1766.41 104.203 1763.22 107.618C1761.94 109.005 1761.29 109.694 1760.91 110.001C1758.44 111.983 1757.13 111.062 1753.72 112.197C1752.03 112.765 1749.5 113.649 1747.3 116.403C1745.64 118.488 1744.85 120.796 1744.47 121.894C1742.37 128.157 1743.19 135.583 1746.27 158.309C1746.53 160.235 1747.34 166.07 1749.22 173.31C1751.3 181.285 1752.77 183.621 1754.49 184.654C1756.75 186.013 1759.06 184.868 1759.91 184.468C1761.77 183.612 1770.81 183.519 1788.88 183.333C1801.94 183.202 1800.5 185.631 1817.46 186.729C1828.89 187.465 1831.77 186.506 1853.19 186.162C1863.4 186.004 1871.7 186.078 1877 186.162" stroke="#606C38" stroke-miterlimit="10"/>
</svg>
