<svg width="136" height="132" viewBox="0 0 136 132" fill="none" xmlns="http://www.w3.org/2000/svg">
<path d="M44.3284 46.3869C46.2618 45.4252 45.7591 38.3473 44.6378 24.1914C43.6324 11.3434 43.2458 6.68885 46.4938 3.22681C48.5044 1.07265 51.8297 -0.504503 54.8457 0.149438C60.2977 1.30345 62.579 9.30461 63.1977 11.5357C65.4017 19.3061 62.695 22.9604 64.7444 34.9622C65.4404 39.0782 66.175 41.1169 67.5284 41.4247C69.5004 41.8863 71.511 38.3857 74.3337 34.9622C79.0897 29.1536 83.8843 26.2686 93.5509 20.4985C102.522 15.1131 107.703 11.9973 110.603 14.0361C113.696 16.1902 113.116 23.3836 110.603 28.192C109.482 30.3077 108.244 31.5001 101.632 36.8086C91.4243 45.0406 88.447 47.0024 88.9496 48.5026C89.1043 49.0027 89.839 50.0028 98.2296 50.0413C106.775 50.0413 111.802 49.0411 120.54 48.5026C131.831 47.7717 133.996 48.8103 135.079 50.349C136.741 52.657 135.852 56.2345 134.769 58.3502C132.643 62.5046 128.157 63.851 119.303 66.3513C111.183 68.6594 105.576 70.2365 97.9203 69.7365C90.187 69.2364 86.127 67.0053 85.2376 68.5055C84.3096 70.0442 87.9056 73.2754 95.4456 82.0459C102.019 89.7009 105.383 93.6245 107.51 97.779C108.09 98.856 115.784 114.012 110.603 118.744C107.123 121.936 99.0029 119.244 94.1696 115.974C87.0936 111.166 84.1936 103.087 82.7243 99.0099C79.6696 90.5087 80.327 84.6617 75.6097 82.0459C75.3777 81.9305 72.207 80.1995 70.6604 81.4305C69.3457 82.4691 69.887 85.1618 70.0417 86.0465C71.163 92.2397 69.191 99.0484 66.639 107.934C66.175 109.55 63.4297 118.667 55.8124 126.745C52.1777 130.591 49.7031 131.784 47.1511 131.976C44.3284 132.169 40.6165 131.207 38.7991 128.591C37.3298 126.475 37.6005 124.052 41.5831 112.243C45.9138 99.3561 48.1564 92.8552 50.8631 90.6626C52.9897 88.97 55.9671 87.3544 56.4311 84.2001C56.7017 82.2767 56.0444 79.8533 54.5751 79.2763C52.4484 78.43 49.5098 81.8151 46.8418 84.2001C41.5444 88.8931 35.6671 90.5087 23.9125 93.7399C14.3232 96.3557 3.45791 99.3561 0.673919 95.2786C-1.02741 92.7783 0.828585 88.4315 2.52991 86.0465C5.1979 82.3152 8.13656 82.4306 18.6539 78.6608C34.5071 72.9677 33.5405 70.6981 41.5831 69.4287C43.0138 69.1979 45.9524 68.8132 46.1458 67.6592C46.3778 66.2359 42.4724 64.5049 40.1138 63.5048C25.9232 57.35 21.7858 56.5807 16.8752 54.0419C7.86589 49.4258 -0.215412 40.5784 1.48592 36.8086C2.80058 33.8466 9.91522 34.2313 14.1685 34.4621C17.1459 34.616 23.9512 35.3468 32.2258 39.6167C40.2298 43.7327 42.2404 47.3871 44.3284 46.3869Z" fill="#2BB673"/>
<path d="M60.2066 57.6773C63.2609 55.5681 64.8074 54.4942 65.2327 54.3792C68.4803 53.3054 73.429 54.4942 75.7488 58.1759C77.8752 61.5508 76.7153 65.2324 76.406 66.1145C75.0528 70.3714 71.4959 72.2889 70.568 72.7491C66.8178 74.59 61.7917 74.5133 58.3508 71.752C57.7322 71.2535 55.2965 69.2592 55.0259 65.9611C54.7939 63.2382 56.1857 61.1672 56.6883 60.4769C57.1523 59.8633 57.6162 59.4415 60.2066 57.6773Z" fill="#FFDE17"/>
</svg>
